_________________________  Visit us at _________________________
  
http://p2pdl.com  ____________________________  http://p2pdl.com

 
http://cdn.piczend.com/images/L5ib8Z1T/1361600450_6309.jpg

Red Dawn 2012 BRRip 720p x264 AAC - PRiSTiNE

Genre: Action
Plot: A group of teenagers look to save their town from an invasion of North Korean soldiers.
Director: Dan Bradley
Stars: Chris Hemsworth, Isabel Lucas, Josh Hutcherson.
Rated: PG-13 for sequences of intense war violence and action, and for language.

Info: 
http://www.imdb.com/title/tt1234719/
 
http://www.rottentomatoes.com/m/red_dawn_2012/

General
Complete name                  : Red Dawn 2012 BRRip 720p x264 AAC - PRiSTiNE.mp4
Format                         : MPEG-4
Format profile                 : Base Media / Version 2
Codec ID                       : mp42
File size                      : 524 MiB
Duration                       : 1h 33mn
Overall bit rate mode          : Variable
Overall bit rate               : 785 Kbps

Source                         : 720p Bluray Sparks (Thanks)
Video
Format                         : AVC
Width                          : 1 280 pixels
Height                         : 536 pixels
Display aspect ratio           : 2.40:1
Frame rate mode                : Variable
Frame rate                     : 23.976 fps
Scan type                      : Progressive
Bits/(Pixel*Frame)             : 0.043
Stream size                    : 467 MiB (89%)
Writing library                : x264 core 129

Audio
Format                         : AAC
Bit rate mode                  : Variable
Bit rate                       : 79.9 Kbps
Channel(s)                     : 2 channels
Channel positions              : Front: L R
Sampling rate                  : 48.0 KHz
Stream size                    : 53.4 MiB (10%)
Language                       : English

Subtitle                       : Yes ( English)


Screens: 
http://cdn.piczend.com/images/LdcfskYG/1361706637_1.jpg 
http://cdn.piczend.com/images/24HKd9hd/1361706637_2.jpg 
http://cdn.piczend.com/images/ZUbSEhd9/1361706637_3.jpg 
http://cdn.piczend.com/images/MwOvyeFm/1361706637_4.jpg


Thumbs:
 
http://cdn.piczend.com/images/RfApvBXf/1361706637_thumbs.jpg
----------------------------------------------------------------------------------------------------


Recommend to you to use latest version of VLC player. Install K-Lite Codec Pack or shark007 codecs
in case of any kind of problem in playback (For non-VLC Media Player users). Alternatively, install
Core AVC codecs, the fastest decoder that there is coupled with Community Center Codec Pack and play
on Windows Media Player Classic. Check sample to be sure.
Enjoy!

Greets to: VYTO, a2zRG, MusiK_KinG, Kuroyukihime, TorDigger, Ash968, StyLishSaLH, Masta and staff members at
ExtraTorrent, TPB, H33T, KAT, 1337x, PublicHD, Ahashare, BTScene, SilverTorrent, LimeTorrents, TorrentMafia,
P2PDL, and all others.

Encoder Notes: Looking For Early Access To Anything You Can Provide DVDScr, R5, DVDR, BluRay, Direct
Audio, Early Music Releases, Seedboxes, Dedicated Servers anything u can provide, Advance / Promo CDs/
DVDs. If You Got anything to offer contact me at "prg@hush.com".